<svg width="25" height="26" viewBox="0 0 25 26" fill="none" xmlns="http://www.w3.org/2000/svg">
<path d="M24.6945 23.934L17.5852 16.8247C18.9623 15.1236 19.7914 12.9622 19.7914 10.608C19.7914 5.15176 15.3519 0.712158 9.89569 0.712158C4.4395 0.712158 0 5.15171 0 10.608C0 16.0642 4.43955 20.5038 9.89574 20.5038C12.2499 20.5038 14.4113 19.6747 16.1123 18.2976L23.2216 25.4069C23.4247 25.6101 23.6914 25.7122 23.9581 25.7122C24.2248 25.7122 24.4914 25.6101 24.6946 25.4069C25.1018 24.9997 25.1018 24.3413 24.6945 23.934ZM9.89574 18.4205C5.58744 18.4205 2.08333 14.9163 2.08333 10.608C2.08333 6.29961 5.58744 2.79546 9.89574 2.79546C14.204 2.79546 17.7082 6.29961 17.7082 10.608C17.7082 14.9163 14.204 18.4205 9.89574 18.4205Z" fill="white"/>
</svg>
